<mxfile host="app.diagrams.net" agent="Mozilla/5.0 (Windows NT 10.0; Win64; x64) AppleWebKit/537.36 (KHTML, like Gecko) Chrome/132.0.0.0 Safari/537.36" version="26.0.11">
  <diagram name="Page-1" id="e7e014a7-5840-1c2e-5031-d8a46d1fe8dd">
    <mxGraphModel dx="1434" dy="738" grid="1" gridSize="10" guides="1" tooltips="1" connect="1" arrows="1" fold="1" page="1" pageScale="1" pageWidth="1169" pageHeight="826" background="none" math="0" shadow="0">
      <root>
        <mxCell id="0" />
        <mxCell id="1" parent="0" />
        <mxCell id="wqrz5G_dyRKWkGGyf853-41" value="Client" style="swimlane;whiteSpace=wrap;html=1;" vertex="1" parent="1">
          <mxGeometry x="80" y="80" width="200" height="930" as="geometry" />
        </mxCell>
        <mxCell id="wqrz5G_dyRKWkGGyf853-46" value="" style="ellipse;fillColor=#000000;strokeColor=none;" vertex="1" parent="wqrz5G_dyRKWkGGyf853-41">
          <mxGeometry x="85" y="50" width="30" height="30" as="geometry" />
        </mxCell>
        <mxCell id="wqrz5G_dyRKWkGGyf853-47" value="Demander reparation/&lt;div&gt;entretirn&lt;/div&gt;" style="html=1;align=center;verticalAlign=top;rounded=1;absoluteArcSize=1;arcSize=10;dashed=0;" vertex="1" parent="wqrz5G_dyRKWkGGyf853-41">
          <mxGeometry x="30" y="110" width="140" height="40" as="geometry" />
        </mxCell>
        <mxCell id="wqrz5G_dyRKWkGGyf853-68" value="Facture" style="shape=note;whiteSpace=wrap;html=1;rounded=0;shadow=0;comic=0;labelBackgroundColor=none;strokeWidth=1;fontFamily=Verdana;fontSize=12;align=center;size=20;" vertex="1" parent="wqrz5G_dyRKWkGGyf853-41">
          <mxGeometry x="50" y="530" width="90" height="55" as="geometry" />
        </mxCell>
        <mxCell id="wqrz5G_dyRKWkGGyf853-42" value="Secretaire" style="swimlane;whiteSpace=wrap;html=1;" vertex="1" parent="1">
          <mxGeometry x="280" y="80" width="200" height="930" as="geometry" />
        </mxCell>
        <mxCell id="wqrz5G_dyRKWkGGyf853-48" value="Remplir feuille de&amp;nbsp;&lt;div&gt;service&lt;/div&gt;" style="html=1;align=center;verticalAlign=top;rounded=1;absoluteArcSize=1;arcSize=10;dashed=0;" vertex="1" parent="wqrz5G_dyRKWkGGyf853-42">
          <mxGeometry x="10" y="110" width="140" height="40" as="geometry" />
        </mxCell>
        <mxCell id="wqrz5G_dyRKWkGGyf853-64" value="Feuille&lt;div&gt;service&lt;/div&gt;" style="shape=note;whiteSpace=wrap;html=1;rounded=0;shadow=0;comic=0;labelBackgroundColor=none;strokeWidth=1;fontFamily=Verdana;fontSize=12;align=center;size=20;" vertex="1" parent="wqrz5G_dyRKWkGGyf853-42">
          <mxGeometry x="140" y="372.5" width="90" height="55" as="geometry" />
        </mxCell>
        <mxCell id="wqrz5G_dyRKWkGGyf853-70" style="edgeStyle=orthogonalEdgeStyle;rounded=0;orthogonalLoop=1;jettySize=auto;html=1;exitX=0.5;exitY=1;exitDx=0;exitDy=0;entryX=0.5;entryY=0;entryDx=0;entryDy=0;" edge="1" parent="wqrz5G_dyRKWkGGyf853-42" source="wqrz5G_dyRKWkGGyf853-66" target="wqrz5G_dyRKWkGGyf853-67">
          <mxGeometry relative="1" as="geometry" />
        </mxCell>
        <mxCell id="wqrz5G_dyRKWkGGyf853-66" value="Payement&lt;div&gt;immediat&lt;/div&gt;" style="html=1;align=center;verticalAlign=top;rounded=1;absoluteArcSize=1;arcSize=10;dashed=0;" vertex="1" parent="wqrz5G_dyRKWkGGyf853-42">
          <mxGeometry x="20" y="440" width="140" height="40" as="geometry" />
        </mxCell>
        <mxCell id="wqrz5G_dyRKWkGGyf853-71" style="edgeStyle=orthogonalEdgeStyle;rounded=0;orthogonalLoop=1;jettySize=auto;html=1;exitX=0.5;exitY=1;exitDx=0;exitDy=0;entryX=0.5;entryY=0;entryDx=0;entryDy=0;" edge="1" parent="wqrz5G_dyRKWkGGyf853-42" source="wqrz5G_dyRKWkGGyf853-67" target="wqrz5G_dyRKWkGGyf853-69">
          <mxGeometry relative="1" as="geometry" />
        </mxCell>
        <mxCell id="wqrz5G_dyRKWkGGyf853-67" value="" style="rhombus;whiteSpace=wrap;html=1;" vertex="1" parent="wqrz5G_dyRKWkGGyf853-42">
          <mxGeometry x="70.00000000000023" y="530" width="40" height="40" as="geometry" />
        </mxCell>
        <mxCell id="wqrz5G_dyRKWkGGyf853-69" value="Payer" style="html=1;align=center;verticalAlign=top;rounded=1;absoluteArcSize=1;arcSize=10;dashed=0;" vertex="1" parent="wqrz5G_dyRKWkGGyf853-42">
          <mxGeometry x="20" y="610" width="140" height="40" as="geometry" />
        </mxCell>
        <mxCell id="wqrz5G_dyRKWkGGyf853-74" value="Oui" style="text;html=1;align=center;verticalAlign=middle;resizable=0;points=[];autosize=1;strokeColor=none;fillColor=none;" vertex="1" parent="wqrz5G_dyRKWkGGyf853-42">
          <mxGeometry x="90" y="560" width="40" height="30" as="geometry" />
        </mxCell>
        <mxCell id="wqrz5G_dyRKWkGGyf853-73" value="Non" style="text;html=1;align=center;verticalAlign=middle;resizable=0;points=[];autosize=1;strokeColor=none;fillColor=none;" vertex="1" parent="wqrz5G_dyRKWkGGyf853-42">
          <mxGeometry x="30" y="518" width="50" height="30" as="geometry" />
        </mxCell>
        <mxCell id="wqrz5G_dyRKWkGGyf853-43" value="Mecanicien en chef" style="swimlane;whiteSpace=wrap;html=1;" vertex="1" parent="1">
          <mxGeometry x="480" y="80" width="200" height="930" as="geometry" />
        </mxCell>
        <mxCell id="wqrz5G_dyRKWkGGyf853-54" style="edgeStyle=orthogonalEdgeStyle;rounded=0;orthogonalLoop=1;jettySize=auto;html=1;exitX=0;exitY=0;exitDx=90;exitDy=20;exitPerimeter=0;entryX=0.5;entryY=0;entryDx=0;entryDy=0;" edge="1" parent="wqrz5G_dyRKWkGGyf853-43" source="wqrz5G_dyRKWkGGyf853-50" target="wqrz5G_dyRKWkGGyf853-53">
          <mxGeometry relative="1" as="geometry" />
        </mxCell>
        <mxCell id="wqrz5G_dyRKWkGGyf853-50" value="Feuille&lt;div&gt;service&lt;/div&gt;" style="shape=note;whiteSpace=wrap;html=1;rounded=0;shadow=0;comic=0;labelBackgroundColor=none;strokeWidth=1;fontFamily=Verdana;fontSize=12;align=center;size=20;" vertex="1" parent="wqrz5G_dyRKWkGGyf853-43">
          <mxGeometry x="-20" y="102.5" width="90" height="55" as="geometry" />
        </mxCell>
        <mxCell id="wqrz5G_dyRKWkGGyf853-56" style="edgeStyle=orthogonalEdgeStyle;rounded=0;orthogonalLoop=1;jettySize=auto;html=1;exitX=0.5;exitY=1;exitDx=0;exitDy=0;entryX=0.5;entryY=0;entryDx=0;entryDy=0;" edge="1" parent="wqrz5G_dyRKWkGGyf853-43" source="wqrz5G_dyRKWkGGyf853-53" target="wqrz5G_dyRKWkGGyf853-55">
          <mxGeometry relative="1" as="geometry" />
        </mxCell>
        <mxCell id="wqrz5G_dyRKWkGGyf853-53" value="Evaluer" style="html=1;align=center;verticalAlign=top;rounded=1;absoluteArcSize=1;arcSize=10;dashed=0;" vertex="1" parent="wqrz5G_dyRKWkGGyf853-43">
          <mxGeometry x="35" y="200" width="140" height="40" as="geometry" />
        </mxCell>
        <mxCell id="wqrz5G_dyRKWkGGyf853-55" value="Assigner auto" style="html=1;align=center;verticalAlign=top;rounded=1;absoluteArcSize=1;arcSize=10;dashed=0;" vertex="1" parent="wqrz5G_dyRKWkGGyf853-43">
          <mxGeometry x="35" y="280" width="140" height="40" as="geometry" />
        </mxCell>
        <mxCell id="wqrz5G_dyRKWkGGyf853-44" value="Mecanicien" style="swimlane;whiteSpace=wrap;html=1;" vertex="1" parent="1">
          <mxGeometry x="680" y="80" width="200" height="930" as="geometry" />
        </mxCell>
        <mxCell id="wqrz5G_dyRKWkGGyf853-57" value="Enter infos&lt;div&gt;service&lt;/div&gt;" style="html=1;align=center;verticalAlign=top;rounded=1;absoluteArcSize=1;arcSize=10;dashed=0;" vertex="1" parent="wqrz5G_dyRKWkGGyf853-44">
          <mxGeometry x="20" y="280" width="140" height="40" as="geometry" />
        </mxCell>
        <mxCell id="wqrz5G_dyRKWkGGyf853-45" value="Commis compatable" style="swimlane;whiteSpace=wrap;html=1;" vertex="1" parent="1">
          <mxGeometry x="880" y="80" width="200" height="930" as="geometry" />
        </mxCell>
        <mxCell id="wqrz5G_dyRKWkGGyf853-62" style="edgeStyle=orthogonalEdgeStyle;rounded=0;orthogonalLoop=1;jettySize=auto;html=1;exitX=0;exitY=0;exitDx=90;exitDy=37.5;exitPerimeter=0;entryX=0.5;entryY=0;entryDx=0;entryDy=0;" edge="1" parent="wqrz5G_dyRKWkGGyf853-45" source="wqrz5G_dyRKWkGGyf853-59" target="wqrz5G_dyRKWkGGyf853-61">
          <mxGeometry relative="1" as="geometry" />
        </mxCell>
        <mxCell id="wqrz5G_dyRKWkGGyf853-59" value="Feuille&lt;div&gt;service&lt;/div&gt;" style="shape=note;whiteSpace=wrap;html=1;rounded=0;shadow=0;comic=0;labelBackgroundColor=none;strokeWidth=1;fontFamily=Verdana;fontSize=12;align=center;size=20;" vertex="1" parent="wqrz5G_dyRKWkGGyf853-45">
          <mxGeometry x="-20" y="280" width="90" height="55" as="geometry" />
        </mxCell>
        <mxCell id="wqrz5G_dyRKWkGGyf853-61" value="Produire&amp;nbsp;&lt;div&gt;facture&lt;/div&gt;" style="html=1;align=center;verticalAlign=top;rounded=1;absoluteArcSize=1;arcSize=10;dashed=0;" vertex="1" parent="wqrz5G_dyRKWkGGyf853-45">
          <mxGeometry x="40" y="380" width="140" height="40" as="geometry" />
        </mxCell>
        <mxCell id="wqrz5G_dyRKWkGGyf853-51" style="edgeStyle=orthogonalEdgeStyle;rounded=0;orthogonalLoop=1;jettySize=auto;html=1;exitX=1;exitY=0.5;exitDx=0;exitDy=0;entryX=0;entryY=0.5;entryDx=0;entryDy=0;entryPerimeter=0;" edge="1" parent="1" source="wqrz5G_dyRKWkGGyf853-48" target="wqrz5G_dyRKWkGGyf853-50">
          <mxGeometry relative="1" as="geometry" />
        </mxCell>
        <mxCell id="wqrz5G_dyRKWkGGyf853-52" style="edgeStyle=orthogonalEdgeStyle;rounded=0;orthogonalLoop=1;jettySize=auto;html=1;exitX=1;exitY=0.5;exitDx=0;exitDy=0;" edge="1" parent="1" source="wqrz5G_dyRKWkGGyf853-47" target="wqrz5G_dyRKWkGGyf853-48">
          <mxGeometry relative="1" as="geometry" />
        </mxCell>
        <mxCell id="wqrz5G_dyRKWkGGyf853-58" style="edgeStyle=orthogonalEdgeStyle;rounded=0;orthogonalLoop=1;jettySize=auto;html=1;exitX=1;exitY=0.5;exitDx=0;exitDy=0;" edge="1" parent="1" source="wqrz5G_dyRKWkGGyf853-55" target="wqrz5G_dyRKWkGGyf853-57">
          <mxGeometry relative="1" as="geometry" />
        </mxCell>
        <mxCell id="wqrz5G_dyRKWkGGyf853-60" style="edgeStyle=orthogonalEdgeStyle;rounded=0;orthogonalLoop=1;jettySize=auto;html=1;exitX=1;exitY=0.5;exitDx=0;exitDy=0;entryX=-0.033;entryY=0.364;entryDx=0;entryDy=0;entryPerimeter=0;" edge="1" parent="1" source="wqrz5G_dyRKWkGGyf853-57" target="wqrz5G_dyRKWkGGyf853-59">
          <mxGeometry relative="1" as="geometry" />
        </mxCell>
        <mxCell id="wqrz5G_dyRKWkGGyf853-65" style="edgeStyle=orthogonalEdgeStyle;rounded=0;orthogonalLoop=1;jettySize=auto;html=1;exitX=0;exitY=0.5;exitDx=0;exitDy=0;entryX=1.011;entryY=0.518;entryDx=0;entryDy=0;entryPerimeter=0;" edge="1" parent="1" source="wqrz5G_dyRKWkGGyf853-61" target="wqrz5G_dyRKWkGGyf853-64">
          <mxGeometry relative="1" as="geometry" />
        </mxCell>
        <mxCell id="wqrz5G_dyRKWkGGyf853-72" style="edgeStyle=orthogonalEdgeStyle;rounded=0;orthogonalLoop=1;jettySize=auto;html=1;exitX=0;exitY=0.5;exitDx=0;exitDy=0;entryX=0;entryY=0;entryDx=90;entryDy=20;entryPerimeter=0;" edge="1" parent="1" source="wqrz5G_dyRKWkGGyf853-67" target="wqrz5G_dyRKWkGGyf853-68">
          <mxGeometry relative="1" as="geometry" />
        </mxCell>
      </root>
    </mxGraphModel>
  </diagram>
</mxfile>
